{"title":"Permanent 2017 720p WEB-DL x264 AC3-RiPRG","magnet":"magnet:?xt=urn:btih:e7f3b776b8402c21c1e01e54d396a970dcf3049a&dn=Permanent+2017+720p+WEB-DL+x264+AC3-RiPRG&tr=udp%3A%2F%2Ftracker.leechers-paradise.org%3A6969&tr=udp%3A%2F%2Fzer0day.ch%3A1337&tr=udp%3A%2F%2Fopen.demonii.com%3A1337&tr=udp%3A%2F%2Ftracker.coppersurfer.tk%3A6969&tr=udp%3A%2F%2Fexodus.desync.com%3A6969","uploader":"RiPRG","categoryP":"video","categoryS":"hd___movies","size":"1832795515","seeders":"1","leechers":"3","description":" <a href=\"https://s10.postimg.org/5ci8hkc21/sa4h_YFu.jpg\" rel=\"nofollow\" target=\"_NEW\">https://s10.postimg.org/5ci8hkc21/sa4h_YFu.jpg</a>\r\n\r\nPermanent 2017 720p WEB-DL x264 AC3-RiPRG\r\n\r\nPermanent is a comedy about bad hair, adolescence, and socially awkward family members. It involves life-altering permanents and poorly-made toupees. Obstacles to daily survival ensue.\r\n <a href=\"\nhttp://www.imdb.com/title/tt5933560/\" rel=\"nofollow\" target=\"_NEW\">\nhttp://www.imdb.com/title/tt5933560/</a>\r\n\r\nGeneral\r\n\r\nFormat                                   : Matroska\r\nFormat version                           : Version 4 / Version 2\r\nFile size                                : 1.71 GiB\r\nDuration                                 : 1h 33mn\r\nOverall bit rate                         : 2 625 Kbps\r\nMovie name                               : RiPRG\r\n\r\nVideo\r\n\r\nID                                       : 1\r\nFormat                                   : AVC\r\nFormat/Info                              : Advanced Video Codec\r\nFormat profile                           : <a href=\"/cdn-cgi/l/email-protection\" class=\"__cf_email__\" data-cfemail=\"337e525a5d737f07\">[email&#xA0;protected]</a>\r\nFormat settings, CABAC                   : Yes\r\nFormat settings, ReFrames                : 4 frames\r\nCodec ID                                 : V_MPEG4/ISO/AVC\r\nDuration                                 : 1h 33mn\r\nBit rate                                 : 2 348 Kbps\r\nNominal bit rate                         : 2 500 Kbps\r\nWidth                                    : 1 280 pixels\r\nHeight                                   : 690 pixels\r\nDisplay aspect ratio                     : 1.85:1\r\nFrame rate mode                          : Constant\r\nFrame rate                               : 23.976 (24000/1001) fps\r\nColor space                              : YUV\r\nChroma subsampling                       : 4:2:0\r\nBit depth                                : 8 bits\r\nScan type                                : Progressive\r\nBits/(Pixel*Frame)                       : 0.111\r\nStream size                              : 1.53 GiB (89%)\r\nWriting library                          : x264 core 148\r\nDefault                                  : Yes\r\nForced                                   : No\r\nColor range                              : Limited\r\nColor primaries                          : BT.709\r\nTransfer characteristics                 : BT.709\r\nMatrix coefficients                      : BT.709\r\n\r\nAudio\r\n\r\nID                                       : 2\r\nFormat                                   : AC-3\r\nFormat/Info                              : Audio Coding 3\r\nMode extension                           : CM (complete main)\r\nFormat settings, Endianness              : Big\r\nCodec ID                                 : A_AC3\r\nDuration                                 : 1h 33mn\r\nBit rate mode                            : Constant\r\nBit rate                                 : 224 Kbps\r\nChannel(s)                               : 6 channels\r\nChannel positions                        : Front: L C R, Side: L R, LFE\r\nSampling rate                            : 48.0 KHz\r\nFrame rate                               : 31.250 fps (1536 spf)\r\nCompression mode                         : Lossy\r\nDelay relative to video                  : -5ms\r\nStream size                              : 149 MiB (9%)\r\nTitle                                    : Surround\r\nLanguage                                 : English\r\nDefault                                  : Yes\r\nForced                                   : No\r\n <a href=\"\nhttps://s14.postimg.org/t5xh0rof5/Permanent_2017_720p_WEB-_DL_x264_AC3-_Ri_PRG-008.jpg\" rel=\"nofollow\" target=\"_NEW\">\nhttps://s14.postimg.org/t5xh0rof5/Permanent_2017_720p_WEB-_DL_x264_AC3-_Ri_PRG-008.jpg</a> <a href=\"\nhttps://s14.postimg.org/lpy7f0iq9/Permanent_2017_720p_WEB-_DL_x264_AC3-_Ri_PRG-043.jpg\" rel=\"nofollow\" target=\"_NEW\">\nhttps://s14.postimg.org/lpy7f0iq9/Permanent_2017_720p_WEB-_DL_x264_AC3-_Ri_PRG-043.jpg</a> <a href=\"\nhttps://s13.postimg.org/xv9eah08n/Permanent_2017_720p_WEB-_DL_x264_AC3-_Ri_PRG-050.jpg\" rel=\"nofollow\" target=\"_NEW\">\nhttps://s13.postimg.org/xv9eah08n/Permanent_2017_720p_WEB-_DL_x264_AC3-_Ri_PRG-050.jpg</a>","last_updated":"2017-12-30T12:00:39.459Z","parsed":{"xt":"urn:btih:e7f3b776b8402c21c1e01e54d396a970dcf3049a","dn":"Permanent 2017 720p WEB-DL x264 AC3-RiPRG","tr":["udp://exodus.desync.com:6969","udp://open.demonii.com:1337","udp://tracker.coppersurfer.tk:6969","udp://tracker.leechers-paradise.org:6969","udp://zer0day.ch:1337"],"infoHash":"e7f3b776b8402c21c1e01e54d396a970dcf3049a","infoHashBuffer":{"type":"Buffer","data":[231,243,183,118,184,64,44,33,193,224,30,84,211,150,169,112,220,243,4,154]},"name":"Permanent 2017 720p WEB-DL x264 AC3-RiPRG","announce":["udp://exodus.desync.com:6969","udp://open.demonii.com:1337","udp://tracker.coppersurfer.tk:6969","udp://tracker.leechers-paradise.org:6969","udp://zer0day.ch:1337"],"urlList":[]}}